<?xml version="1.0" encoding="UTF-8"?>
<svg version="1.1" xmlns="http://www.w3.org/2000/svg" width="1024" height="1024">
<path d="M0 0 C4.19786637 2.18875605 8.99628206 1.35965881 13.48388672 0.47973633 C39.0653517 -3.21243388 64.47667027 3.22096093 85.64404297 17.89379883 C88.14104255 19.84658055 90.52035908 21.8868765 92.89404297 23.98754883 C93.82474609 24.76356445 94.75544922 25.53958008 95.71435547 26.33911133 C117.72832669 45.3642405 132.01761768 72.88468112 140.97998047 100.18676758 C141.38039299 101.40573982 141.38039299 101.40573982 141.78889465 102.64933777 C143.13372369 106.7661629 144.45079295 110.88981151 145.73364258 115.02636719 C146.22065422 116.55771412 146.7077127 118.08904616 147.19482422 119.62036133 C147.51469803 120.69086983 147.51469803 120.69086983 147.84103394 121.78300476 C149.03303408 125.54302612 149.03303408 125.54302612 151.66259766 128.36206055 C154.52843239 129.16537221 157.3709963 129.80505833 160.29638672 130.36254883 C160.94609436 130.4879303 161.595802 130.61331177 162.26519775 130.74249268 C164.45295037 131.16309407 166.64222933 131.57515669 168.83154297 131.98754883 C170.38999235 132.28618227 171.9483392 132.5853512 173.5065918 132.88500977 C182.38813137 134.58740234 191.27749528 136.24748473 200.16856384 137.89929199 C204.95247406 138.78856413 209.73562447 139.6818941 214.51882935 140.57495117 C218.03805186 141.2294603 221.55863303 141.87626695 225.0793457 142.52270508 C227.2819583 142.93255372 229.48451613 143.34269684 231.68701172 143.75317383 C232.68573303 143.93422668 233.68445435 144.11527954 234.71343994 144.30181885 C246.24865572 146.46907993 255.45164721 149.08151713 262.43652344 159.22827148 C263.84466821 161.70973204 265.10180043 164.22556519 266.33154297 166.80004883 C267.35055342 168.83806973 268.37012269 170.87581128 269.39013672 172.91333008 C269.94169434 174.03175293 270.49325195 175.15017578 271.06152344 176.30249023 C274.2002911 182.64443373 277.47253504 188.91915773 280.71795654 195.2069397 C282.28597219 198.24755876 283.84873964 201.29086222 285.41168213 204.33409119 C290.70476277 214.63835457 296.05460527 224.91227455 301.42578125 235.17602539 C303.03319109 238.25399874 304.63420198 241.33524125 306.23388672 244.41723633 C306.79833496 245.50456055 307.3627832 246.59188477 307.94433594 247.7121582 C309.06244756 249.86679559 310.17997698 252.02173522 311.296875 254.17700195 C313.63840836 258.68725651 315.9885005 263.18984903 318.42138672 267.65161133 C318.79231445 268.33352539 319.16324219 269.01543945 319.54541016 269.71801758 C320.49234837 271.44945973 321.44857838 273.17581181 322.40576172 274.90161133 C325.38090626 281.07054621 327.3819093 287.53928867 325.13623047 294.25317383 C321.96362168 301.79748765 318.28474477 306.24717465 310.84716797 309.87817383 C309.8138736 310.40154327 309.8138736 310.40154327 308.75970459 310.93548584 C306.55990966 312.04737543 304.35260399 313.14319063 302.14404297 314.23754883 C299.27148884 315.67479832 296.40248253 317.11899359 293.53466797 318.56567383 C292.4643634 319.10339417 292.4643634 319.10339417 291.37243652 319.65197754 C285.64414129 322.55150894 280.04373312 325.64867128 274.49664307 328.88092041 C271.12189562 330.82608499 267.72693089 332.54932978 264.15826416 334.11578369 C263.35699223 334.46851978 262.55572029 334.82125587 261.73016739 335.18468094 C261.12424633 335.44962734 260.51832527 335.71457375 259.89404297 335.98754883 C259.89257641 336.54100951 259.89110985 337.0944702 259.88959885 337.66470242 C259.85246785 351.16220136 259.79311986 364.65944737 259.71014023 378.15674496 C259.67067646 384.68409653 259.63848232 391.21131341 259.62304688 397.73876953 C259.60787344 404.04129644 259.57341464 410.34345303 259.52573395 416.6458149 C259.51092743 419.04705138 259.50300238 421.44834074 259.50215912 423.84962273 C259.49978564 427.22013438 259.47267317 430.58962582 259.43994141 433.95996094 C259.44497177 434.94683395 259.45000214 435.93370697 259.45518494 436.95048523 C259.32907508 445.37588336 256.9728463 452.89629035 250.89404297 458.98754883 C247.96606445 460.76757812 247.96606445 460.76757812 244.57763672 462.37426758 C243.96351425 462.66887375 243.34939178 462.96347992 242.71665955 463.26701355 C240.78244062 464.18887853 238.8399426 465.09063418 236.89404297 465.98754883 C235.70439941 466.54007324 234.51475586 467.09259766 233.2890625 467.66186523 C230.1875964 469.08611485 227.08058976 470.49603238 223.96789551 471.89544678 C220.37383085 473.51187065 216.7844741 475.13869378 213.19482422 476.76489258 C212.06232742 477.27768768 212.06232742 477.27768768 210.9069519 477.80084229 C202.13278001 481.778325 193.38818129 485.8195789 184.64404297 489.86254883 C181.36154599 491.37959517 178.07896349 492.89645641 174.79638672 494.41333008 C173.57406845 494.97822647 173.57406845 494.97822647 172.32705688 495.55453491 C163.29143025 499.72958526 154.25041216 503.89288613 145.20654297 508.05004883 C144.42292389 508.41028137 143.63930481 508.77051392 142.8319397 509.1416626 C133.59967295 513.38432552 124.35570989 517.59750327 115.07983398 521.74414062 C108.07163451 524.88647573 101.1074843 528.12249752 94.14404297 531.36254883 C76.76206511 539.4483059 59.35953396 547.47244215 41.83154297 555.23754883 C30.67296227 560.18282007 19.58286452 565.23065892 8.59716797 570.55004883 C-3.77953826 576.53585552 -16.21216821 582.36846863 -28.73095703 588.05004883 C-29.44741394 588.37537598 -30.16387085 588.70070313 -30.90203857 589.03588867 C-35.29851554 591.03059943 -39.69607675 593.02261072 -44.10595703 594.98754883 C-44.71979752 595.26674164 -45.333638 595.54593445 -45.96607971 595.83358765 C-50.4153043 597.81644589 -53.90490235 598.44863496 -58.79345703 598.48754883 C-60.07607422 598.51848633 -61.35869141 598.54942383 -62.68017578 598.58129883 C-68.61919428 598.12165433 -73.76715213 595.46424705 -79.10595703 592.98754883 C-79.71923859 592.70359253 -80.33252014 592.41963623 -80.96438599 592.1270752 C-85.1581746 590.17930728 -89.33487186 588.19669218 -93.50738525 586.2038269 C-106.19135601 580.14901299 -118.9204095 574.20703308 -131.73095703 568.42504883 C-142.86224991 563.39877157 -153.94007585 558.27193522 -164.98095703 553.05004883 C-180.8326505 545.55552445 -196.76500756 538.24670873 -212.72363281 530.9831543 C-219.97967232 527.6800002 -227.23017315 524.36471907 -234.48095703 521.05004883 C-235.19586304 520.72332184 -235.91076904 520.39659485 -236.64733887 520.05996704 C-248.20242938 514.77887114 -259.74972799 509.48092904 -271.29345703 504.17504883 C-272.0795636 503.81373871 -272.86567017 503.45242859 -273.67559814 503.08016968 C-276.74170667 501.67089279 -279.8077849 500.26155 -282.87384033 498.85215759 C-297.79806747 491.99188823 -312.73074654 485.15076671 -327.68280029 478.35134888 C-329.83297222 477.37300706 -331.98244878 476.39315047 -334.13183594 475.41308594 C-340.2067143 472.64600238 -346.2843215 469.89340038 -352.41064453 467.24145508 C-353.32620117 466.84200684 -354.24175781 466.44255859 -355.18505859 466.03100586 C-356.80483933 465.32736118 -358.42880985 464.63322745 -360.05810547 463.9519043 C-367.85730444 460.55193546 -372.94640576 456.48510575 -376.29276276 448.55366707 C-377.71925198 444.0522335 -377.67575157 439.64797428 -377.65185547 434.95996094 C-377.66219315 433.89550751 -377.67253082 432.83105408 -377.68318176 431.73434448 C-377.71248839 428.24437054 -377.71410642 424.75497962 -377.71533203 421.26489258 C-377.7303218 418.8339376 -377.74705061 416.40299278 -377.76544189 413.97206116 C-377.80903763 407.59513874 -377.82909748 401.2183537 -377.84417725 394.84130859 C-377.8637762 388.32551985 -377.90574317 381.80987886 -377.94580078 375.29418945 C-378.02101883 362.52535941 -378.07212172 349.75655218 -378.10595703 336.98754883 C-381.57598461 335.08997584 -385.04683528 333.19391311 -388.51782227 331.2980957 C-389.48827232 330.76738464 -390.45872238 330.23667358 -391.45858002 329.68988037 C-397.45256527 326.41714043 -403.46710105 323.18865286 -409.51611328 320.01879883 C-410.66202391 319.41776463 -410.66202391 319.41776463 -411.83108425 318.80458832 C-414.68912524 317.30625838 -417.54834294 315.81026471 -420.41088867 314.32055664 C-422.59434404 313.18309779 -424.77420172 312.03898212 -426.95361328 310.89379883 C-427.60250015 310.5583606 -428.25138702 310.22292236 -428.91993713 309.87731934 C-436.32580429 305.97165422 -441.15840246 301.89127378 -444.10595703 293.98754883 C-445.71275816 286.70408845 -444.03052874 281.12004609 -440.60986328 274.66723633 C-440.07611588 273.63123039 -440.07611588 273.63123039 -439.53158569 272.57429504 C-438.77783776 271.11290779 -438.01998008 269.65363379 -437.25827026 268.19638062 C-436.13462049 266.04249287 -435.02587563 263.88167369 -433.92260742 261.71728516 C-431.70319111 257.36411486 -429.46839968 253.01897575 -427.23095703 248.67504883 C-426.83622192 247.90797607 -426.44148682 247.14090332 -426.03479004 246.35058594 C-421.30808616 237.16632113 -416.56406633 227.99238145 -411.73144531 218.86328125 C-408.14932316 212.09219669 -404.62731945 205.29039373 -401.10595703 198.48754883 C-391.2354232 179.42757461 -391.2354232 179.42757461 -386.20751953 169.97583008 C-384.90830711 167.53069611 -383.66134205 165.08057602 -382.44189453 162.59301758 C-378.01730677 153.75567251 -372.37972956 149.35258508 -363.10595703 145.98754883 C-360.16902189 145.23791602 -357.20799097 144.71713076 -354.22070312 144.20996094 C-353.35964462 144.05667831 -352.49858612 143.90339569 -351.61143494 143.74546814 C-348.78539344 143.24420239 -345.95744102 142.75470724 -343.12939453 142.26489258 C-341.15581695 141.91614276 -339.18239983 141.56648374 -337.20913696 141.21595764 C-332.02723531 140.29723624 -326.84376289 139.38774429 -321.659729 138.48114014 C-313.35551608 137.02840912 -305.05293936 135.56655991 -296.7519722 134.09539986 C-293.8562506 133.58433847 -290.95937674 133.0802326 -288.06234741 132.5766449 C-286.2856568 132.26328701 -284.50901243 131.94966685 -282.73242188 131.63574219 C-281.52755882 131.42917999 -281.52755882 131.42917999 -280.2983551 131.21844482 C-274.51240027 130.20563473 -274.51240027 130.20563473 -269.10595703 127.98754883 C-267.81776176 125.28496929 -266.89043752 122.87756928 -266.02001953 120.04223633 C-265.62271133 118.83822678 -265.62271133 118.83822678 -265.21737671 117.6098938 C-264.37005696 115.03304875 -263.54913413 112.44877963 -262.73095703 109.86254883 C-261.65063472 106.50219144 -260.55893417 103.14573838 -259.45751953 99.79223633 C-259.05017326 98.55152626 -259.05017326 98.55152626 -258.63459778 97.28575134 C-254.92771577 86.20271582 -250.18976456 75.47642573 -244.66845703 65.17504883 C-244.10288086 64.11616455 -244.10288086 64.11616455 -243.52587891 63.03588867 C-240.21158193 56.95828965 -236.41787947 51.40658649 -232.10595703 45.98754883 C-231.39697266 45.07618164 -230.68798828 44.16481445 -229.95751953 43.22583008 C-212.25736158 20.96089455 -189.13232954 4.15233924 -160.35058594 0.21020508 C-155.83803523 -0.23741796 -151.32538765 -0.30174367 -146.79345703 -0.32495117 C-145.43317383 -0.33328979 -145.43317383 -0.33328979 -144.04541016 -0.34179688 C-139.47983369 -0.29309406 -135.27527476 0.07935124 -130.81298828 1.06958008 C-123.79443607 2.58400804 -119.82771464 1.09404313 -113.79345703 -2.69995117 C-80.56831885 -22.55459662 -32.02276228 -22.21288306 0 0 Z M-211.5546875 44.57446289 C-218.58339623 52.65381838 -224.26091594 61.45123746 -229.10595703 70.98754883 C-229.4156543 71.58293457 -229.72535156 72.17832031 -230.04443359 72.79174805 C-245.17915908 102.41167358 -252.18675196 137.47715113 -261.43212891 169.24194336 C-262.68660133 173.5519878 -263.94823383 177.85985858 -265.21488953 182.16633606 C-266.1635324 185.39673014 -267.10325578 188.62968779 -268.04345703 191.86254883 C-268.36725342 192.95946045 -268.6910498 194.05637207 -269.0246582 195.18652344 C-269.44968628 196.66197632 -269.44968628 196.66197632 -269.88330078 198.16723633 C-270.24282837 199.40062744 -270.24282837 199.40062744 -270.60961914 200.65893555 C-271.15532964 203.21918479 -271.36317974 205.37920109 -271.10595703 207.98754883 C-268.64687739 210.17907065 -268.64687739 210.17907065 -265.41845703 211.86254883 C-264.36271484 212.4787207 -263.30697266 213.09489258 -262.21923828 213.72973633 C-258.77745178 215.12026989 -257.58972746 214.861904 -254.10595703 213.98754883 C-253.78957275 212.86711182 -253.47318848 211.7466748 -253.1472168 210.59228516 C-222.60812336 102.56135063 -222.60812336 102.56135063 -202.10595703 75.98754883 C-201.01347656 74.55088867 -201.01347656 74.55088867 -199.89892578 73.08520508 C-185.62981054 54.97533991 -166.89770941 45.31096035 -144.15673828 42.49926758 C-143.47595215 42.41378662 -142.79516602 42.32830566 -142.09375 42.24023438 C-140.12921506 41.99811796 -138.16252612 41.77367648 -136.19580078 41.55004883 C-133.01230157 41.27324473 -133.01230157 41.27324473 -131.10595703 38.98754883 C-130.5222626 35.57216739 -130.5222626 35.57216739 -131.10595703 31.98754883 C-138.0421971 25.40124519 -147.6690457 22.23245137 -157.10595703 21.98754883 C-157.93353516 21.93727539 -158.76111328 21.88700195 -159.61376953 21.83520508 C-179.43756058 21.11276371 -198.28027946 30.03390808 -211.5546875 44.57446289 Z M13.33154297 31.42504883 C11.67999567 33.87941727 11.67999567 33.87941727 11.89404297 36.61254883 C13.18009803 39.66692959 13.96986753 40.37745836 16.89404297 41.98754883 C20.12747056 42.50991944 23.37592011 42.62876173 26.64404297 42.80004883 C41.17351897 43.88794428 53.05974508 48.32347381 64.89404297 56.98754883 C66.21082031 57.90213867 66.21082031 57.90213867 67.55419922 58.83520508 C91.89121932 77.00918124 103.60011525 109.2496228 112.89404297 136.98754883 C113.10309265 137.60990417 113.31214233 138.23225952 113.52752686 138.87347412 C118.15824818 152.68092711 122.54153729 166.55727289 126.58154297 180.55004883 C127.68423266 184.36297933 128.78766389 188.17568696 129.89404297 191.98754883 C130.19439453 193.02492188 130.49474609 194.06229492 130.80419922 195.13110352 C131.71186601 198.23483022 132.6434012 201.33041571 133.58154297 204.42504883 C133.85506592 205.37387939 134.12858887 206.32270996 134.41040039 207.30029297 C134.67699463 208.16517334 134.94358887 209.03005371 135.21826172 209.92114258 C135.44602295 210.68483154 135.67378418 211.44852051 135.90844727 212.23535156 C136.75781726 214.16093167 136.75781726 214.16093167 138.82617188 214.81542969 C141.99617468 215.0792847 143.86981132 213.68383259 146.58154297 212.11254883 C147.55478516 211.55825195 148.52802734 211.00395508 149.53076172 210.43286133 C151.76865074 209.19104626 151.76865074 209.19104626 152.89404297 207.98754883 C152.46500049 200.34423653 150.46758691 193.4166329 148.26904297 186.11254883 C147.87690968 184.7916285 147.48549902 183.47049347 147.09472656 182.14916992 C146.44322666 179.94779609 145.79072848 177.74674244 145.13528442 175.54653931 C143.17494376 168.96285674 141.2585293 162.36684434 139.34716797 155.76879883 C126.87443837 109.14302425 126.87443837 109.14302425 107.89404297 64.98754883 C107.32427734 63.94469727 106.75451172 62.9018457 106.16748047 61.82739258 C101.72838126 54.34824676 95.95861727 48.15348092 89.89404297 41.98754883 C89.11287109 41.1702832 88.33169922 40.35301758 87.52685547 39.51098633 C75.16974374 27.40351322 59.28868851 22.1412819 42.20654297 21.61254883 C31.98319275 21.88885559 20.92910546 24.19809914 13.33154297 31.42504883 Z M-142.10595703 55.98754883 C-143.30285156 56.61790039 -143.30285156 56.61790039 -144.52392578 57.26098633 C-161.39090769 66.72741649 -171.44483556 81.71149079 -179.10595703 98.98754883 C-179.38036621 99.60549316 -179.65477539 100.2234375 -179.9375 100.86010742 C-185.08828022 112.77666203 -187.84255901 125.33409561 -190.65478516 137.9642334 C-191.134494 140.1155251 -191.61804428 142.26593107 -192.10205078 144.41625977 C-197.05711472 166.46498646 -201.72281051 188.56804499 -206.18725586 210.72119141 C-206.36823822 211.61662659 -206.54922058 212.51206177 -206.73568726 213.43463135 C-207.07115945 215.09594842 -207.40505773 216.75758453 -207.73696899 218.4196167 C-208.72551701 223.31571538 -209.86714831 228.14856484 -211.10595703 232.98754883 C-211.94137557 235.61997556 -211.94137557 235.61997556 -211.10595703 237.98754883 C-208.63732298 240.03455973 -205.93502053 241.49641788 -203.10595703 242.98754883 C-201.49720703 243.91567383 -201.49720703 243.91567383 -199.85595703 244.86254883 C-196.85433997 246.09048308 -196.02881309 246.18821334 -193.10595703 244.98754883 C-191.83578327 241.95945459 -190.95178507 239.14932243 -190.10595703 235.98754883 C-189.77321777 234.77550781 -189.44047852 233.5634668 -189.09765625 232.31469727 C-187.88142107 227.83882074 -186.71258255 223.35091382 -185.54345703 218.86254883 C-185.10232534 217.1794741 -184.66099659 215.496451 -184.21948242 213.81347656 C-181.9603177 205.18600819 -179.73294907 196.55092814 -177.54345703 187.90551758 C-162.24608887 127.51366132 -162.24608887 127.51366132 -153.10595703 109.98754883 C-152.77208984 109.34027832 -152.43822266 108.69300781 -152.09423828 108.02612305 C-142.50258383 89.69264942 -129.45079914 78.84809275 -109.81689453 72.21411133 C-106.18547277 71.24666692 -102.62541932 70.94225413 -98.88330078 70.76098633 C-98.11993408 70.72400635 -97.35656738 70.68702637 -96.57006836 70.64892578 C-95.03275852 70.58394191 -93.49466504 70.53511278 -91.95629883 70.50390625 C-87.80220817 70.39205167 -87.80220817 70.39205167 -84.14111328 68.62426758 C-82.33785219 65.77307363 -82.40684731 64.29243112 -83.10595703 60.98754883 C-88.53314886 54.19252817 -96.62504626 50.502846 -105.10595703 49.23754883 C-106.43767109 49.13143615 -107.77143184 49.04890631 -109.10595703 48.98754883 C-110.20810547 48.91020508 -110.20810547 48.91020508 -111.33251953 48.83129883 C-121.97748717 48.41520889 -132.73512467 50.95094058 -142.10595703 55.98754883 Z M-33.66845703 59.42504883 C-35.37552157 61.96136385 -35.37552157 61.96136385 -35.04345703 65.17504883 C-34.32704874 68.28355591 -34.32704874 68.28355591 -31.10595703 69.98754883 C-28.60535538 70.21645674 -26.17302043 70.35353157 -23.66845703 70.42504883 C-7.8179139 71.19045664 6.00062295 76.23488313 17.89404297 86.98754883 C18.67134766 87.67461914 19.44865234 88.36168945 20.24951172 89.06958008 C26.22664606 94.95168843 30.15914685 101.50212476 34.08154297 108.86254883 C34.5563208 109.73975586 35.03109863 110.61696289 35.52026367 111.52075195 C43.85116748 127.81791205 48.18150208 146.05214105 52.76904297 163.67504883 C53.28680287 165.64355827 53.80520544 167.61189878 54.32421875 169.58007812 C55.36250324 173.52071056 56.39731202 177.46222875 57.42919922 181.40454102 C58.75883507 186.47992737 60.10391535 191.55106 61.45654297 196.62036133 C65.74586658 212.70748667 69.92852819 228.81698167 73.89404297 244.98754883 C77.3211457 246.13421102 78.75464644 246.04073092 82.19091797 244.72973633 C83.33044922 244.11356445 84.46998047 243.49739258 85.64404297 242.86254883 C87.36880859 241.96149414 87.36880859 241.96149414 89.12841797 241.04223633 C92.04454668 239.29379239 92.04454668 239.29379239 92.62840271 236.67658997 C92.91515326 233.77385216 92.61166681 231.73231143 91.90991211 228.90820312 C91.54983315 227.41460014 91.54983315 227.41460014 91.18247986 225.89082336 C90.91327225 224.81285995 90.64406464 223.73489655 90.36669922 222.62426758 C89.80033911 220.26733507 89.23681806 217.90971899 88.67578125 215.55151367 C88.38068665 214.31367126 88.08559204 213.07582886 87.78155518 211.80047607 C86.30391629 205.45224839 84.96951342 199.0752373 83.64013672 192.69458008 C83.36595722 191.38198415 83.09175667 190.06939262 82.8175354 188.75680542 C82.12530827 185.4389953 81.43585834 182.12061388 80.74719238 178.80206299 C78.47569791 167.86119807 76.18914431 156.92348431 73.89404297 145.98754883 C73.66094421 144.87206665 73.42784546 143.75658447 73.18768311 142.6072998 C69.83347138 126.43568553 69.83347138 126.43568553 65.14404297 110.61254883 C64.80896729 109.62633545 64.4738916 108.64012207 64.12866211 107.62402344 C59.65652055 94.92116159 53.72577248 83.21970604 44.89404297 72.98754883 C43.81123047 71.50254883 43.81123047 71.50254883 42.70654297 69.98754883 C32.63787151 58.09724273 16.2980118 50.31547718 0.89404297 48.98754883 C-12.17195746 48.20549625 -23.96278338 50.19282267 -33.66845703 59.42504883 Z M-76.10595703 75.98754883 C-76.79560547 76.2427832 -77.48525391 76.49801758 -78.19580078 76.76098633 C-90.45945206 82.05499817 -99.92633223 94.0325239 -104.98486328 106.07348633 C-111.95228718 124.18393312 -117.77235395 149.9407005 -111.10595703 168.98754883 C-109.06208863 172.20118846 -109.06208863 172.20118846 -106.10595703 173.98754883 C-102.19498933 174.15050582 -100.60804232 173.40347283 -97.60205078 170.91333008 C-94.70548693 167.51814021 -93.436493 164.24478394 -92.16845703 160.05004883 C-91.9210376 159.27516113 -91.67361816 158.50027344 -91.41870117 157.7019043 C-89.44002346 151.3893667 -87.74365702 145.00440536 -86.04345703 138.61254883 C-82.14426815 124.09834767 -78.13723373 110.90745714 -64.29345703 102.92504883 C-57.10194366 99.24414672 -48.38955199 98.58727405 -40.57080078 100.65942383 C-39.12107112 101.20147442 -37.67306912 101.74817394 -36.22705078 102.30004883 C-31.88843968 103.70630215 -27.41826102 104.12188664 -23.24267578 102.07348633 C-20.56524367 100.09256997 -19.18703225 98.19474105 -17.98095703 95.11254883 C-18.15073586 90.86807817 -19.38104486 88.14487779 -22.10595703 84.98754883 C-36.76719294 72.2758033 -58.01712402 68.94790146 -76.10595703 75.98754883 Z M-17.60595703 102.42504883 C-19.84164297 106.24434564 -19.87674417 109.67114088 -19.10595703 113.98754883 C-17.06357248 117.41583718 -15.00187534 119.87442931 -11.10595703 120.98754883 C-7.13608874 120.91790202 -4.96126974 120.84286154 -2.10595703 117.98754883 C-0.6897735 113.73899824 -0.85720119 110.27675368 -2.10595703 105.98754883 C-4.13169513 102.97963468 -5.4642771 101.35236659 -9.07470703 100.55004883 C-12.38867368 100.35220007 -14.73348493 100.77337737 -17.60595703 102.42504883 Z M-288.73144531 152.8737793 C-290.38939621 153.1644075 -290.38939621 153.1644075 -292.08084106 153.46090698 C-293.26733246 153.67337067 -294.45382385 153.88583435 -295.67626953 154.10473633 C-296.90828094 154.32195343 -298.14029236 154.53917053 -299.40963745 154.76296997 C-302.68403106 155.34111476 -305.95772259 155.92296309 -309.23114014 156.5065918 C-312.52738654 157.09330655 -315.82453415 157.67488608 -319.12158203 158.25708008 C-329.78750039 160.14292591 -340.4509212 162.04106393 -351.10595703 163.98754883 C-351.43595703 165.30754883 -351.76595703 166.62754883 -352.10595703 167.98754883 C-339.85537275 174.73377585 -327.55971478 181.37647925 -315.13696289 187.80102539 C-314.24630127 188.2621875 -313.35563965 188.72334961 -312.43798828 189.19848633 C-311.56609863 189.64804687 -310.69420898 190.09760742 -309.79589844 190.56079102 C-307.90070685 191.56600971 -306.02408537 192.60663279 -304.16210938 193.67211914 C-303.19869629 194.22222656 -302.2352832 194.77233398 -301.24267578 195.33911133 C-300.37731201 195.84522949 -299.51194824 196.35134766 -298.62036133 196.87280273 C-295.89377678 198.08161767 -294.0538628 198.21149058 -291.10595703 197.98754883 C-288.49561606 191.25776352 -286.28116315 184.43138699 -284.10595703 177.55004883 C-283.41897904 175.38451858 -282.73148778 173.21915108 -282.04345703 171.05395508 C-281.71861328 170.02286621 -281.39376953 168.99177734 -281.05908203 167.92944336 C-279.96609869 164.55586517 -278.77168529 161.22458292 -277.52392578 157.90527344 C-277.02707343 155.62561502 -277.38665858 154.18244891 -278.10595703 151.98754883 C-281.76846006 151.89312358 -285.12644643 152.23485941 -288.73144531 152.8737793 Z M158.89404297 151.98754883 C157.48745936 156.44817039 158.83337587 159.7308521 160.31591797 164.00708008 C160.57657043 164.78387619 160.8372229 165.5606723 161.10577393 166.36100769 C161.65921907 168.00420641 162.21767684 169.64572411 162.78076172 171.28564453 C163.63622626 173.77728178 164.47744991 176.27335019 165.31591797 178.77075195 C165.85675369 180.37064247 166.39839494 181.97026094 166.94091797 183.56958008 C167.19105652 184.30835892 167.44119507 185.04713776 167.69891357 185.80830383 C169.24283052 190.29760957 170.9734754 194.64559753 172.89404297 198.98754883 C176.06130041 198.3170115 178.71131068 197.20770609 181.60498047 195.76489258 C182.96695557 195.08680542 182.96695557 195.08680542 184.35644531 194.39501953 C185.79818115 193.66738403 185.79818115 193.66738403 187.26904297 192.92504883 C188.75525146 192.17904419 188.75525146 192.17904419 190.27148438 191.41796875 C196.81398304 188.10835324 203.18243044 184.60957077 209.50732422 180.90161133 C214.07854393 178.31810769 218.76151969 175.99003544 223.47949219 173.68798828 C227.05749437 171.93723511 230.51373141 170.09618847 233.89404297 167.98754883 C233.39904297 166.00754883 233.39904297 166.00754883 232.89404297 163.98754883 C224.28052332 162.41572061 215.66582918 160.85054219 207.04958248 159.29373169 C203.04832714 158.5705591 199.0475064 157.84514253 195.04760742 157.11450195 C191.18415675 156.40887253 187.31965926 155.70926293 183.45437813 155.01373291 C181.98328744 154.74794572 180.51257997 154.48002806 179.0422802 154.2098999 C176.97554584 153.8305768 174.90755212 153.45899976 172.83911133 153.08911133 C171.66440781 152.87593262 170.48970428 152.66275391 169.27940369 152.44311523 C165.77695022 151.97179171 162.42369843 151.90828797 158.89404297 151.98754883 Z M244.08935547 181.94458008 C242.90079956 182.60997803 242.90079956 182.60997803 241.68823242 183.28881836 C240.8073999 183.78752441 239.92656738 184.28623047 239.01904297 184.80004883 C228.52949316 190.63528315 217.89430739 196.15166675 207.20654297 201.61254883 C203.96551772 203.26982757 200.72466028 204.92743421 197.48388672 206.58520508 C196.32972763 207.17541946 196.32972763 207.17541946 195.1522522 207.77755737 C189.15006544 210.84965757 183.17749538 213.97412063 177.22265625 217.13696289 C172.08868195 219.85419855 166.92757881 222.51600762 161.75732422 225.16333008 C161.01846985 225.54170517 160.27961548 225.92008026 159.51837158 226.30992126 C158.76561951 226.69539627 158.01286743 227.08087128 157.23730469 227.47802734 C145.11788092 233.68444418 133.03280462 239.91783927 121.11743164 246.51049805 C113.28725559 250.8226831 105.3472628 254.90867436 97.39404297 258.98754883 C87.4450596 264.09052295 77.56306477 269.28477997 67.77050781 274.68408203 C60.27339314 278.80953427 52.69019738 282.75709447 45.09106445 286.69067383 C39.48391559 289.6040275 33.94215018 292.60174548 28.45654297 295.73754883 C22.94934964 298.88095876 17.37470542 301.80511803 11.68774414 304.60864258 C5.28995137 307.76934203 -1.06118378 311.01874938 -7.4012146 314.29336548 C-8.60967312 314.91695402 -9.81882875 315.53919371 -11.02871704 316.16000366 C-12.7463956 317.04167531 -14.46137134 317.92860635 -16.17626953 318.81567383 C-17.17416504 319.33033203 -18.17206055 319.84499023 -19.20019531 320.37524414 C-22.30237736 322.09653554 -25.18078443 323.983113 -28.10595703 325.98754883 C-27.6025547 330.66321795 -25.72517817 333.12783795 -22.79345703 336.73754883 C-18.78601774 341.77104394 -14.97824474 346.90073293 -11.29345703 352.17504883 C-7.12754183 358.12319168 -2.9262646 364.04226544 1.33154297 369.92504883 C1.86924316 370.66811279 2.40694336 371.41117676 2.9609375 372.17675781 C4.05360652 373.68598448 5.14654366 375.19501708 6.23974609 376.70385742 C18.56765958 393.72205441 30.79021697 410.80926657 42.89404297 427.98754883 C46.87775294 427.38514515 49.85438341 426.13254788 53.38232422 424.20629883 C55.00485107 423.32784302 55.00485107 423.32784302 56.66015625 422.43164062 C57.2357428 422.11609222 57.81132935 421.80054382 58.40435791 421.47543335 C60.24915933 420.46418828 62.098052 419.46082119 63.94824219 418.45947266 C65.91378089 417.39564488 67.87907019 416.33138519 69.84313965 415.2648468 C76.38726838 411.71195912 82.95987446 408.21369527 89.5385437 404.72528076 C91.53771532 403.66514713 93.53636921 402.60404297 95.53491211 401.54272461 C102.51867198 397.8348031 109.5058983 394.13346479 116.49560547 390.43676758 C117.20939865 390.05922333 117.92319183 389.68167908 118.65861511 389.29269409 C124.61421298 386.14265427 124.61421298 386.14265427 127.306427 384.71936035 C135.73800606 380.26128132 144.15564932 375.77942999 152.55322266 371.25756836 C164.47007471 364.84093339 176.45554353 358.58072555 188.50003052 352.40829468 C199.34676351 346.847513 210.11622043 341.16061331 220.84570312 335.37695312 C228.45159651 331.28126201 236.094561 327.26559384 243.76904297 323.30004883 C252.42789807 318.82404505 261.00961328 314.22864159 269.54736328 309.52612305 C277.87813383 304.95435872 286.31054065 300.58557432 294.77294922 296.26293945 C296.27535156 295.49046875 296.27535156 295.49046875 297.80810547 294.70239258 C298.69449707 294.24985107 299.58088867 293.79730957 300.49414062 293.33105469 C302.79556142 292.04268046 304.82773566 290.62170101 306.89404297 288.98754883 C306.29823904 283.74858322 303.79502429 279.47584519 301.40576172 274.86645508 C300.95144775 273.97879959 300.49713379 273.0911441 300.02905273 272.17658997 C298.552991 269.29771398 297.06763018 266.42376071 295.58154297 263.55004883 C294.5608989 261.56594853 293.5404729 259.58173603 292.52026367 257.59741211 C287.22641706 247.32131822 281.8786749 237.08565461 276.25805664 226.98388672 C270.81800498 217.16154394 265.76228058 207.13550086 260.67797852 197.12573242 C259.97917971 195.7567479 259.28036842 194.38776975 258.58154297 193.01879883 C258.26848709 192.39788361 257.95543121 191.77696838 257.63288879 191.13723755 C255.62187375 187.20512121 253.57379009 183.49368503 250.89404297 179.98754883 C247.68959326 179.98754883 246.79155379 180.4058012 244.08935547 181.94458008 Z M-370.10595703 180.98754883 C-375.79682326 190.94760336 -381.26585345 200.98861755 -386.47653198 211.20797729 C-388.32538729 214.83329058 -390.18545599 218.45285446 -392.04345703 222.07348633 C-392.58425148 223.12840523 -392.58425148 223.12840523 -393.13597107 224.20463562 C-395.74499851 229.29232428 -398.37591136 234.36775264 -401.04345703 239.42504883 C-401.40165527 240.10631836 -401.75985352 240.78758789 -402.12890625 241.48950195 C-404.54421931 246.06931887 -406.98948231 250.63255092 -409.44487 255.19096375 C-411.10679951 258.279952 -412.76182776 261.372614 -414.41629028 264.46560669 C-415.24469973 266.01002873 -416.0762579 267.55276637 -416.91110229 269.09371948 C-418.08938196 271.26905279 -419.25683612 273.44989391 -420.42236328 275.63208008 C-420.77916168 276.28445648 -421.13596008 276.93683289 -421.50357056 277.60897827 C-423.51247243 281.39953235 -424.6525978 284.71858706 -425.10595703 288.98754883 C-419.06434965 292.88558825 -412.87742708 296.27330275 -406.48095703 299.55004883 C-398.71853647 303.56042578 -391.00907972 307.64744867 -383.35595703 311.86254883 C-371.74465656 318.24533815 -359.97443238 324.31075048 -348.20019531 330.38598633 C-343.90789759 332.6076585 -339.62995639 334.85592125 -335.35595703 337.11254883 C-328.44976306 340.75779667 -321.53127354 344.37875795 -314.60595703 347.98754883 C-306.83066328 352.03969779 -299.0650374 356.10946224 -291.30908203 360.19848633 C-285.08349001 363.47841232 -278.84603713 366.73528403 -272.60595703 369.98754883 C-247.43534348 383.11132525 -222.31856206 396.34661203 -197.35595703 409.86254883 C-195.92316406 410.63695312 -195.92316406 410.63695312 -194.46142578 411.42700195 C-189.73688251 413.98830476 -185.03521269 416.58350838 -180.35986328 419.23364258 C-179.44237305 419.75007324 -178.52488281 420.26650391 -177.57958984 420.79858398 C-175.85883743 421.76946723 -174.14295175 422.74904962 -172.43310547 423.73901367 C-169.46520614 425.41010553 -166.71798163 426.81281267 -163.43798828 427.74926758 C-159.34696249 426.41300287 -157.41246396 422.88792788 -154.98095703 419.48754883 C-154.41183594 418.71725342 -153.84271484 417.94695801 -153.25634766 417.15332031 C-148.66499619 410.89395697 -144.26816026 404.50072839 -139.91064453 398.07739258 C-135.34334975 391.37231859 -130.53678124 384.83620123 -125.76757812 378.27416992 C-123.02118845 374.4947568 -120.28106651 370.7108255 -117.54345703 366.92504883 C-116.74089478 365.81528687 -116.74089478 365.81528687 -115.92211914 364.68310547 C-111.67014376 358.79263617 -107.46344125 352.87099382 -103.30224609 346.91601562 C-101.10656098 343.78075222 -98.893869 340.67708234 -96.54345703 337.65551758 C-95.80095703 336.69258789 -95.05845703 335.7296582 -94.29345703 334.73754883 C-93.64763672 333.92801758 -93.00181641 333.11848633 -92.33642578 332.28442383 C-90.88057321 330.05594932 -90.88057321 330.05594932 -91.27709961 327.51000977 C-92.31616678 324.34781773 -93.22366194 323.84634228 -96.13720703 322.33129883 C-96.99765625 321.87303711 -97.85810547 321.41477539 -98.74462891 320.94262695 C-99.68886719 320.46245117 -100.63310547 319.98227539 -101.60595703 319.48754883 C-103.07645508 318.71314453 -103.07645508 318.71314453 -104.57666016 317.9230957 C-107.74423558 316.26026868 -110.9240453 314.62275135 -114.10595703 312.98754883 C-116.18988491 311.90535963 -118.27322302 310.82203392 -120.35595703 309.73754883 C-123.50111533 308.10093357 -126.64717786 306.46624457 -129.796875 304.83837891 C-136.49287578 301.37303123 -143.12880218 297.81558131 -149.73095703 294.17504883 C-159.27484721 288.91674597 -168.94142039 283.91844085 -178.6361084 278.9463501 C-186.8110163 274.75138997 -194.93873784 270.49605362 -202.98095703 266.05004883 C-212.80628968 260.61986498 -222.77771442 255.49436269 -232.7696228 250.38009644 C-242.39964285 245.44863995 -251.94537925 240.39889287 -261.41455078 235.16333008 C-268.4683305 231.28375123 -275.64335062 227.68743636 -282.86303711 224.12841797 C-289.32646458 220.92452674 -295.66844515 217.54092216 -301.98095703 214.05004883 C-310.57832138 209.29693454 -319.29628489 204.8545492 -328.10498047 200.50756836 C-337.05299359 196.0685948 -345.81175613 191.3175616 -354.55126953 186.48364258 C-355.34436523 186.04906738 -356.13746094 185.61449219 -356.95458984 185.16674805 C-358.77729224 184.16769533 -360.59458113 183.15877584 -362.41064453 182.14770508 C-365.26171049 180.92050712 -367.05041917 180.8925232 -370.10595703 180.98754883 Z M-113.10595703 184.98754883 C-116.72958114 188.98603061 -116.54741652 193.24303077 -116.39501953 198.38989258 C-116.03412769 201.63304224 -115.30035082 203.55804142 -113.10595703 205.98754883 C-110.60681015 207.88345336 -109.32632399 207.99223749 -106.16845703 207.92504883 C-102.34911997 206.75586401 -100.67399205 204.99581843 -98.10595703 201.98754883 C-96.12870493 198.03304462 -96.68101704 193.29765446 -97.10595703 188.98754883 C-98.42176555 185.30079569 -98.42176555 185.30079569 -101.10595703 182.98754883 C-106.12624378 181.43582383 -109.04335913 181.60205058 -113.10595703 184.98754883 Z M-74.10595703 337.98754883 C-80.85207379 347.26626092 -87.54668348 356.57557619 -94.10595703 365.98754883 C-101.18819559 376.14480225 -108.43365103 386.1782024 -115.71044922 396.1965332 C-122.05426917 404.93519339 -128.34661422 413.70635473 -134.54345703 422.55004883 C-135.11056396 423.35877441 -135.6776709 424.1675 -136.26196289 425.00073242 C-139.50224539 429.63928131 -142.64238123 434.31800528 -145.65795898 439.10644531 C-148.0050956 442.15562549 -150.63992078 443.38783979 -154.10595703 444.98754883 C-155.09595703 445.48254883 -155.09595703 445.48254883 -156.10595703 445.98754883 C-166.11602112 447.66743848 -173.27248482 443.99649219 -181.72314453 439.29711914 C-185.27048141 437.34753769 -188.86945665 435.50064569 -192.46484375 433.64160156 C-196.42737936 431.59024096 -200.37831293 429.51703291 -204.32958984 427.4440918 C-206.82445625 426.1352303 -209.32051466 424.82867663 -211.81689453 423.52270508 C-220.51049116 418.96724909 -229.16800519 414.34740033 -237.81332397 409.70098877 C-238.40489288 409.38305359 -238.99646179 409.06511841 -239.60595703 408.73754883 C-240.1985733 408.41896912 -240.79118958 408.1003894 -241.40176392 407.77215576 C-251.34853913 402.42830831 -261.35787102 397.21390814 -271.39453125 392.04052734 C-279.10383766 388.05560763 -286.72735586 383.93682568 -294.32470703 379.7434082 C-304.13808748 374.36164826 -314.10894003 369.28488694 -324.08496094 364.21289062 C-325.4229109 363.53013884 -326.76064079 362.84695559 -328.09814453 362.16333008 C-328.75154816 361.83058578 -329.40495178 361.49784149 -330.07815552 361.15501404 C-333.61826301 359.33398823 -337.09410842 357.43716723 -340.53271484 355.43041992 C-341.25782257 355.00931442 -341.9829303 354.58820892 -342.73001099 354.15434265 C-344.12193322 353.33969219 -345.50764059 352.51430054 -346.88595581 351.67683411 C-351.16253717 349.15144147 -351.16253717 349.15144147 -356.10595703 349.98754883 C-356.10595703 380.34754883 -356.10595703 410.70754883 -356.10595703 441.98754883 C-346.74901629 446.6660192 -337.45379823 451.3069281 -327.93286133 455.61694336 C-327.23865082 455.93165588 -326.54444031 456.24636841 -325.82919312 456.57061768 C-324.75962875 457.0554361 -324.75962875 457.0554361 -323.66845703 457.55004883 C-322.14465042 458.24362198 -320.6209716 458.93747597 -319.09741211 459.6315918 C-312.28350228 462.73425057 -305.46435372 465.82535739 -298.64541626 468.91694641 C-295.19452322 470.48161846 -291.74394795 472.04699024 -288.29345703 473.61254883 C-287.61740417 473.91913422 -286.94135132 474.2257196 -286.24481201 474.54159546 C-275.59072204 479.37512154 -264.97813047 484.29294004 -254.3843689 489.25714111 C-246.98339628 492.72477074 -239.57048755 496.15852905 -232.10595703 499.48754883 C-223.81226506 503.18645329 -215.58059782 507.01334156 -207.35595703 510.86254883 C-196.49976291 515.94257531 -185.62466138 520.97803554 -174.72314453 525.96020508 C-169.66246413 528.27318646 -164.6060678 530.59534575 -159.55126953 532.92114258 C-156.42367997 534.35997642 -153.29607615 535.79877924 -150.16845703 537.23754883 C-149.3811319 537.59976532 -148.59380676 537.96198181 -147.78262329 538.33517456 C-139.26542848 542.25259483 -130.74388363 546.15971621 -122.20361328 550.02661133 C-121.49180908 550.34903809 -120.78000488 550.67146484 -120.04663086 551.00366211 C-117.25588571 552.26750432 -114.46506484 553.53116515 -111.67279053 554.79162598 C-104.76483078 557.91084108 -97.88582101 561.06624408 -91.07861328 564.40161133 C-90.00853027 564.92513184 -88.93844727 565.44865234 -87.8359375 565.98803711 C-85.86980619 566.95706123 -83.90876468 567.93651308 -81.95410156 568.9284668 C-81.10058105 569.35015137 -80.24706055 569.77183594 -79.36767578 570.20629883 C-78.26879028 570.76220703 -78.26879028 570.76220703 -77.14770508 571.3293457 C-74.68047271 572.12471321 -73.46785313 572.03799385 -71.10595703 570.98754883 C-69.76799307 566.97365696 -69.97188663 563.11783955 -69.98570251 558.93305969 C-69.98484809 557.99536293 -69.98399366 557.05766616 -69.98311335 556.09155434 C-69.98146067 552.93617981 -69.98697649 549.78085795 -69.99243164 546.62548828 C-69.99271358 544.36891684 -69.99255564 542.11234531 -69.99198914 539.85577393 C-69.99170144 533.71770959 -69.99759369 527.57966467 -70.00456309 521.44160485 C-70.01080125 515.03139865 -70.0114008 508.62119204 -70.0125885 502.21098328 C-70.01534656 491.4479431 -70.02159888 480.68491145 -70.03051758 469.921875 C-70.03969484 458.83528682 -70.04677414 447.74870058 -70.05102539 436.66210938 C-70.05128811 435.97887556 -70.05155084 435.29564174 -70.05182152 434.59170387 C-70.05312655 431.16416347 -70.05439026 427.73662305 -70.05563343 424.30908263 C-70.06600225 395.86856644 -70.08369154 367.42805802 -70.10595703 338.98754883 C-72.08595703 338.49254883 -72.08595703 338.49254883 -74.10595703 337.98754883 Z M-47.10595703 337.98754883 C-49.00208348 339.88367527 -48.22883742 342.6656961 -48.23503834 345.18879277 C-48.2321255 346.08857993 -48.22921266 346.98836709 -48.22621155 347.91542053 C-48.22706597 348.8636591 -48.2279204 349.81189768 -48.22880071 350.78887075 C-48.23045841 353.99191564 -48.22492943 357.19490909 -48.21948242 360.39794922 C-48.21920059 362.68378193 -48.21935821 364.96961473 -48.21992493 367.25544739 C-48.22021305 373.48247017 -48.21431403 379.70947387 -48.20735097 385.9364922 C-48.20111978 392.43613035 -48.20051382 398.93576888 -48.19932556 405.43540955 C-48.19656584 416.35163719 -48.19031028 427.26785775 -48.18139648 438.18408203 C-48.17222312 449.4298499 -48.16514192 460.67561586 -48.16088867 471.92138672 C-48.16062595 472.61410697 -48.16036322 473.30682722 -48.16009254 474.02053899 C-48.15878754 477.49557288 -48.15752382 480.97060678 -48.15628064 484.44564068 C-48.14590711 513.29294805 -48.12821388 542.14024827 -48.10595703 570.98754883 C-43.13852794 572.23565989 -40.36009459 571.12892269 -35.90283203 568.89379883 C-34.85006577 568.38712929 -34.85006577 568.38712929 -33.77603149 567.870224 C-32.25867076 567.13825503 -30.74428501 566.40009368 -29.23260498 565.65646362 C-25.99901293 564.06607511 -22.75132356 562.5055621 -19.50387573 560.94371033 C-17.82896606 560.13807557 -16.15475725 559.3309822 -14.48123169 558.5224762 C-6.53943483 554.69183452 1.47851965 551.04257777 9.51904297 547.42504883 C20.69462969 542.38359214 31.81153104 537.23032408 42.89404297 531.98754883 C65.42204206 521.33604086 88.12307659 511.08032684 110.90600586 500.98706055 C120.54653073 496.71130992 130.10273723 492.2796454 139.61669922 487.72973633 C151.79381002 481.90812103 164.02598382 476.22297087 176.30712891 470.62426758 C180.37154687 468.76966249 184.43369884 466.91014568 188.49560547 465.05004883 C190.77884061 464.00483787 193.06212175 462.95972745 195.34542847 461.91467285 C196.87260238 461.21565335 198.39972271 460.51651679 199.92678833 459.81726074 C207.10842138 456.52941255 214.29064176 453.24484005 221.50732422 450.03442383 C222.44801758 449.61563965 223.38871094 449.19685547 224.35791016 448.76538086 C226.03245401 448.02250261 227.70876319 447.2835847 229.38720703 446.54956055 C233.45949681 444.75927726 233.45949681 444.75927726 236.89404297 441.98754883 C237.08228783 439.0953233 237.14574543 436.29956742 237.12109375 433.40698242 C237.12153183 432.07518196 237.12153183 432.07518196 237.12197876 430.71647644 C237.12058204 427.77288136 237.10500481 424.82953736 237.08935547 421.88598633 C237.08562655 419.8486037 237.08277901 417.81121929 237.08078003 415.77383423 C237.07313401 410.40453157 237.05347722 405.03533667 237.03137207 399.66607666 C237.01093448 394.18991555 237.00178278 388.71373707 236.99169922 383.23754883 C236.97023223 372.48750142 236.93608463 361.73753407 236.89404297 350.98754883 C233.67346109 349.94952718 233.0467099 349.92573471 229.7121582 351.27587891 C228.4525163 351.92385699 227.19970785 352.58522673 225.95263672 353.25708008 C225.27755066 353.6085762 224.6024646 353.96007233 223.90692139 354.32221985 C221.70895152 355.47012864 219.52037525 356.63482514 217.33154297 357.80004883 C215.8136266 358.59717148 214.29515056 359.39322926 212.77612305 360.18823242 C209.10518838 362.1124739 205.44112004 364.04936603 201.77905273 365.99041748 C199.34831403 367.2762282 196.91108111 368.54935311 194.47216797 369.81958008 C186.60981377 373.92009105 178.79697531 378.11147633 170.9855957 382.30810547 C170.39527557 382.62522491 169.80495544 382.94234436 169.19674683 383.26907349 C167.99625534 383.91401935 166.79583606 384.55909963 165.5954895 385.20431519 C156.77747958 389.94179561 147.91678755 394.5885037 139.01904297 399.17504883 C130.02296816 403.81260032 121.10530383 408.56649834 112.24023438 413.44921875 C103.8912411 418.02987444 95.43534818 422.39415919 86.9675293 426.75024414 C78.52045223 431.10822455 70.16202337 435.60958503 61.87060547 440.25708008 C55.86637742 443.58863784 50.52402377 446.2598365 43.51904297 446.36254883 C42.64505859 446.3909082 41.77107422 446.41926758 40.87060547 446.44848633 C35.28716875 445.58385965 30.66022748 443.32756433 27.09326172 438.87817383 C26.23832565 437.67703361 25.4017037 436.46269774 24.58154297 435.23754883 C24.11989746 434.57924072 23.65825195 433.92093262 23.18261719 433.24267578 C21.73505821 431.16944366 20.31298141 429.08044629 18.89404297 426.98754883 C17.99788604 425.68349044 17.10076732 424.38009244 16.20263672 423.07739258 C14.85037794 421.1130276 13.50017692 419.14740025 12.15600586 417.17749023 C6.56593634 408.9965647 0.72007639 401.00114162 -5.10595703 392.98754883 C-12.51547204 382.78912189 -19.84815533 372.54461373 -27.05981445 362.20507812 C-31.03113577 356.51294432 -35.03777477 350.84803901 -39.0871582 345.21118164 C-40.79982438 342.82582793 -42.476722 340.43140138 -44.10595703 337.98754883 C-45.09595703 337.98754883 -46.08595703 337.98754883 -47.10595703 337.98754883 Z " fill="#8E55AE" transform="translate(571.10595703125,221.012451171875)"/>
<path d="M0 0 C17.70637752 2.77887343 35.28815861 6.10840988 52.86621094 9.59248352 C57.71322797 10.55243776 62.56300825 11.4965742 67.41551208 12.4283905 C70.63167266 13.04717485 73.84639577 13.67321378 77.06088257 14.30062866 C78.58913883 14.59739604 80.11796272 14.89125681 81.64736938 15.18203735 C83.7744145 15.58711465 85.89902997 16.00321618 88.0234375 16.421875 C89.22919434 16.65487305 90.43495117 16.88787109 91.67724609 17.12792969 C99.3816761 19.14998876 105.9616962 23.54435873 110.47167969 30.15820312 C111.86656754 32.65079343 113.13371562 35.17745648 114.375 37.75 C115.40326789 39.79706489 116.43194116 41.84392618 117.4609375 43.890625 C118.2977002 45.57768555 118.2977002 45.57768555 119.15136719 47.29882812 C122.30630146 53.64127922 125.57723338 59.92512632 128.82492065 66.22039795 C130.39218637 69.26082425 131.95473934 72.30366237 133.51750183 75.34640503 C138.81085393 85.65059866 144.1605331 95.92466993 149.53173828 106.18847656 C151.13914812 109.26644991 152.74015901 112.34769242 154.33984375 115.4296875 C155.18651611 117.06067383 155.18651611 117.06067383 156.05029297 118.72460938 C157.16840459 120.87924676 158.28593401 123.03418639 159.40283203 125.18945312 C161.74436539 129.69970768 164.09445754 134.2023002 166.52734375 138.6640625 C166.89827148 139.34597656 167.26919922 140.02789062 167.65136719 140.73046875 C168.5983054 142.46191091 169.55453541 144.18826299 170.51171875 145.9140625 C173.48686329 152.08299738 175.48786633 158.55173984 173.2421875 165.265625 C170.06957871 172.80993882 166.3907018 177.25962582 158.953125 180.890625 C158.26426208 181.23953796 157.57539917 181.58845093 156.86566162 181.94793701 C154.66586669 183.0598266 152.45856102 184.1556418 150.25 185.25 C147.37744587 186.68724949 144.50843956 188.13144476 141.640625 189.578125 C140.92708862 189.93660522 140.21355225 190.29508545 139.47839355 190.66442871 C133.75009832 193.56396011 128.14969016 196.66112245 122.6026001 199.89337158 C119.22785265 201.83853617 115.83288792 203.56178095 112.26422119 205.12823486 C111.46294926 205.48097095 110.66167732 205.83370705 109.83612442 206.19713211 C109.23020336 206.46207851 108.6242823 206.72702492 108 207 C107.99853344 207.55346068 107.99706688 208.10692137 107.99555588 208.67715359 C107.95842488 222.17465254 107.8990769 235.67189855 107.81609726 249.16919613 C107.77663349 255.6965477 107.74443935 262.22376458 107.72900391 268.7512207 C107.71383047 275.05374761 107.67937167 281.3559042 107.63169098 287.65826607 C107.61688446 290.05950255 107.60895941 292.46079191 107.60811615 294.8620739 C107.60574268 298.23258555 107.5786302 301.60207699 107.54589844 304.97241211 C107.5509288 305.95928513 107.55595917 306.94615814 107.56114197 307.9629364 C107.43503211 316.38833453 105.07880333 323.90874152 99 330 C96.07202148 331.7800293 96.07202148 331.7800293 92.68359375 333.38671875 C92.06947128 333.68132492 91.45534882 333.97593109 90.82261658 334.27946472 C88.88839765 335.2013297 86.94589963 336.10308535 85 337 C83.81035645 337.55252441 82.62071289 338.10504883 81.39501953 338.67431641 C78.29355344 340.09856602 75.18654679 341.50848355 72.07385254 342.90789795 C68.47978789 344.52432182 64.89043113 346.15114495 61.30078125 347.77734375 C60.16828445 348.29013885 60.16828445 348.29013885 59.01290894 348.81329346 C50.23873705 352.79077617 41.49413832 356.83203007 32.75 360.875 C29.46750303 362.39204634 26.18492052 363.90890758 22.90234375 365.42578125 C21.68002548 365.99067764 21.68002548 365.99067764 20.43301392 366.56698608 C11.39738728 370.74203643 2.35636919 374.9053373 -6.6875 379.0625 C-7.47111908 379.42273254 -8.25473816 379.78296509 -9.06210327 380.15411377 C-18.29437002 384.39677669 -27.53833308 388.60995444 -36.81420898 392.7565918 C-43.82240845 395.8989269 -50.78655867 399.13494869 -57.75 402.375 C-75.13197786 410.46075708 -92.53450901 418.48489332 -110.0625 426.25 C-121.2210807 431.19527124 -132.31117844 436.24311009 -143.296875 441.5625 C-155.67358123 447.54830669 -168.10621118 453.3809198 -180.625 459.0625 C-181.34145691 459.38782715 -182.05791382 459.7131543 -182.79608154 460.04833984 C-187.19255851 462.0430506 -191.59011972 464.03506189 -196 466 C-196.61384048 466.27919281 -197.22768097 466.55838562 -197.86012268 466.84603882 C-202.30934727 468.82889706 -205.79894532 469.46108613 -210.6875 469.5 C-211.97011719 469.5309375 -213.25273437 469.561875 -214.57421875 469.59375 C-220.51323725 469.1341055 -225.6611951 466.47669822 -231 464 C-231.61328156 463.7160437 -232.22656311 463.4320874 -232.85842896 463.13952637 C-237.05221757 461.19175845 -241.22891483 459.20914335 -245.40142822 457.21627808 C-258.08539897 451.16146416 -270.81445247 445.21948425 -283.625 439.4375 C-294.75629288 434.41122274 -305.83411882 429.28438639 -316.875 424.0625 C-332.72669346 416.56797562 -348.65905053 409.25915991 -364.61767578 401.99560547 C-371.87371529 398.69245138 -379.12421612 395.37717025 -386.375 392.0625 C-387.08990601 391.73577301 -387.80481201 391.40904602 -388.54138184 391.07241821 C-400.09647235 385.79132232 -411.64377096 380.49338021 -423.1875 375.1875 C-423.97360657 374.82618988 -424.75971313 374.46487976 -425.56964111 374.09262085 C-428.63574964 372.68334396 -431.70182787 371.27400117 -434.7678833 369.86460876 C-449.69211043 363.0043394 -464.62478951 356.16321788 -479.57684326 349.36380005 C-481.72701519 348.38545823 -483.87649175 347.40560164 -486.02587891 346.42553711 C-492.10075726 343.65845355 -498.17836447 340.90585156 -504.3046875 338.25390625 C-505.22024414 337.85445801 -506.13580078 337.45500977 -507.07910156 337.04345703 C-508.6988823 336.33981235 -510.32285282 335.64567863 -511.95214844 334.96435547 C-519.75134741 331.56438663 -524.84044873 327.49755692 -528.18680573 319.56611824 C-529.61329494 315.06468468 -529.56979454 310.66042545 -529.54589844 305.97241211 C-529.55623611 304.90795868 -529.56657379 303.84350525 -529.57722473 302.74679565 C-529.60653136 299.25682171 -529.60814939 295.76743079 -529.609375 292.27734375 C-529.62436477 289.84638877 -529.64109358 287.41544395 -529.65948486 284.98451233 C-529.7030806 278.60758991 -529.72314044 272.23080487 -529.73822021 265.85375977 C-529.75781917 259.33797102 -529.79978614 252.82233003 -529.83984375 246.30664062 C-529.9150618 233.53781058 -529.96616469 220.76900336 -530 208 C-533.47002758 206.10242701 -536.94087825 204.20636428 -540.41186523 202.31054688 C-541.38231529 201.77983582 -542.35276535 201.24912476 -543.35262299 200.70233154 C-549.34660824 197.4295916 -555.36114402 194.20110404 -561.41015625 191.03125 C-562.17409667 190.63056053 -562.93803709 190.22987106 -563.72512722 189.81703949 C-566.58316821 188.31870955 -569.4423859 186.82271588 -572.30493164 185.33300781 C-574.48838701 184.19554896 -576.66824468 183.05143329 -578.84765625 181.90625 C-579.49654312 181.57081177 -580.14542999 181.23537354 -580.8139801 180.88977051 C-588.21984726 176.9841054 -593.05244543 172.90372495 -596 165 C-597.60680113 157.71653962 -595.92457171 152.13249726 -592.50390625 145.6796875 C-592.14807465 144.98901688 -591.79224304 144.29834625 -591.42562866 143.58674622 C-590.67188073 142.12535897 -589.91402304 140.66608496 -589.15231323 139.20883179 C-588.02866346 137.05494405 -586.9199186 134.89412486 -585.81665039 132.72973633 C-583.59723407 128.37656603 -581.36244265 124.03142693 -579.125 119.6875 C-578.73026489 118.92042725 -578.33552979 118.15335449 -577.92883301 117.36303711 C-573.20212913 108.17877231 -568.4581093 99.00483262 -563.62548828 89.87573242 C-560.04336613 83.10464786 -556.52136242 76.30284491 -553 69.5 C-543.12946617 50.44002579 -543.12946617 50.44002579 -538.1015625 40.98828125 C-536.80235008 38.54314728 -535.55538502 36.09302719 -534.3359375 33.60546875 C-529.90975412 24.76493671 -524.27341457 20.37060469 -515 17 C-512.05273317 16.24161648 -509.080709 15.70935803 -506.08300781 15.19067383 C-505.21873672 15.03417862 -504.35446564 14.87768341 -503.46400452 14.71644592 C-500.62843812 14.20515426 -497.7908978 13.70591845 -494.953125 13.20703125 C-492.97479593 12.85325771 -490.99658708 12.49881131 -489.01849365 12.14372253 C-484.88382969 11.403263 -480.74824121 10.66830205 -476.61181641 9.93774414 C-471.30522778 9.00044712 -466.0004206 8.05350564 -460.69618607 7.10298634 C-455.63660367 6.19677009 -450.57613861 5.29553007 -445.515625 4.39453125 C-444.06529751 4.13560058 -444.06529751 4.13560058 -442.58567047 3.87143898 C-439.85739928 3.38524258 -437.12852283 2.90261234 -434.39941406 2.42114258 C-433.18376518 2.20379456 -433.18376518 2.20379456 -431.94355774 1.98205566 C-428.92140979 1.45200342 -426.07493681 1 -423 1 C-423.40686783 2.79391726 -423.82617443 4.58501328 -424.25 6.375 C-424.59804688 7.87160156 -424.59804688 7.87160156 -424.953125 9.3984375 C-425.29859375 10.58695312 -425.6440625 11.77546875 -426 13 C-426.21394913 13.80794006 -426.42789825 14.61588013 -426.64833069 15.44830322 C-428.8268029 22.29261396 -428.8268029 22.29261396 -431.92861938 24.16287231 C-434.40885784 24.8689613 -436.79652596 25.26564534 -439.35546875 25.5859375 C-440.2821788 25.73873672 -441.20888885 25.89153595 -442.16368103 26.04896545 C-445.16666683 26.53388202 -448.17486183 26.95466038 -451.1875 27.375 C-453.24203162 27.69510556 -455.29591278 28.01941389 -457.34912109 28.34790039 C-462.33818959 29.13730337 -467.33289037 29.87900258 -472.33135986 30.60614014 C-477.21280866 31.3265845 -482.08075897 32.1265821 -486.95043945 32.92236328 C-490.6558686 33.52364418 -494.36600009 34.09115439 -498.07861328 34.64624023 C-500.20942976 34.99246597 -500.20942976 34.99246597 -503 36 C-503 36.99 -503 37.98 -503 39 C-502.23671387 39.39155273 -501.47342773 39.78310547 -500.68701172 40.18652344 C-497.08153787 42.03817287 -493.47779557 43.89314608 -489.875 45.75 C-489.21917938 46.08780487 -488.56335876 46.42560974 -487.88766479 46.77365112 C-479.20897988 51.24831859 -470.60147779 55.82504895 -462.0625 60.5625 C-455.29895115 64.3084094 -448.59641603 67.55558969 -441.4375 70.4765625 C-435.80211391 72.97406315 -430.51503227 76.06581011 -425.15625 79.1015625 C-419.23651136 82.45064298 -413.24394703 85.661198 -407.25 88.875 C-399.23337991 93.17854952 -391.22977136 97.50351193 -383.25 101.875 C-377.11019372 105.23796385 -370.95333085 108.56624597 -364.76953125 111.84765625 C-364.14207001 112.18064728 -363.51460876 112.51363831 -362.86813354 112.85671997 C-361.58177066 113.53929363 -360.29540384 114.22185989 -359.0090332 114.90441895 C-348.41422593 120.52738733 -337.9007034 126.25760535 -327.48291016 132.20458984 C-318.18804678 137.49702129 -308.76760033 142.54697213 -299.33984375 147.59765625 C-293.54387673 150.702795 -287.7683591 153.84393702 -282 157 C-273.68090986 161.54734823 -265.34560853 166.06405884 -257 170.5625 C-255.34291016 171.45678711 -255.34291016 171.45678711 -253.65234375 172.36914062 C-252.61207031 172.92923828 -251.57179688 173.48933594 -250.5 174.06640625 C-249.5821875 174.56084229 -248.664375 175.05527832 -247.71875 175.56469727 C-246.8215625 176.03834717 -245.924375 176.51199707 -245 177 C-243.980271 177.55252441 -242.96054199 178.10504883 -241.90991211 178.67431641 C-239.19104792 179.91296332 -237.84648714 180.34943565 -234.94140625 180.14453125 C-234.22533203 180.09876953 -233.50925781 180.05300781 -232.77148438 180.00585938 C-232.04251953 179.94205078 -231.31355469 179.87824219 -230.5625 179.8125 C-229.83740234 179.76802734 -229.11230469 179.72355469 -228.36523438 179.67773438 C-223.68111919 179.33684189 -219.51342351 178.35293156 -215 177 C-211.26739918 176.55392468 -207.87846218 176.68125465 -204.30859375 177.9765625 C-195.57102695 180.67932814 -184.64124114 180.74782733 -176.27807617 176.84716797 C-173.59624014 175.43065768 -170.97586686 173.9263648 -168.36816406 172.37792969 C-164.66644484 170.22406337 -160.87239265 168.24822006 -157.08911133 166.2421875 C-145.17464652 159.90721836 -133.36985517 153.36718594 -121.5625 146.83544922 C-113.25984758 142.24259604 -104.93844722 137.68540171 -96.60351562 133.15136719 C-91.13477276 130.17339919 -85.68619184 127.16190972 -80.25 124.125 C-71.84446107 119.43353641 -63.36905559 114.87492126 -54.88916016 110.31958008 C-40.65210945 102.66983698 -26.47259807 94.91611084 -12.3125 87.125 C-11.47734863 86.66561035 -10.64219727 86.2062207 -9.78173828 85.73291016 C-6.42966463 83.88869439 -3.07830157 82.04331377 0.26953125 80.19140625 C8.36585099 75.7320599 16.53549739 71.46770169 25.04931641 67.85961914 C28.94955476 66.14087831 32.75167132 64.21937499 36.5625 62.3125 C37.44583008 61.87115723 38.32916016 61.42981445 39.23925781 60.97509766 C45.47141282 57.83410059 51.51341381 54.47405036 57.5390625 50.953125 C63.88952551 47.36934226 70.45293411 44.20580468 77 41 C78.33417935 40.33502807 79.66802167 39.66936982 81 39 C81 38.01 81 37.02 81 36 C44.37 29.565 44.37 29.565 7 23 C1.375 7.25 1.375 7.25 0 0 Z M92.1953125 52.95703125 C91.00675659 53.6224292 91.00675659 53.6224292 89.79418945 54.30126953 C88.91335693 54.79997559 88.03252441 55.29868164 87.125 55.8125 C76.63545019 61.64773432 66.00026442 67.16411792 55.3125 72.625 C52.07147475 74.28227874 48.83061731 75.93988538 45.58984375 77.59765625 C44.43568466 78.18787064 44.43568466 78.18787064 43.25820923 78.79000854 C37.25602248 81.86210875 31.28345241 84.9865718 25.32861328 88.14941406 C20.19463898 90.86664973 15.03353584 93.5284588 9.86328125 96.17578125 C9.12442688 96.55415634 8.38557251 96.93253143 7.62432861 97.32237244 C6.87157654 97.70784744 6.11882446 98.09332245 5.34326172 98.49047852 C-6.77616205 104.69689535 -18.86123835 110.93029044 -30.77661133 117.52294922 C-38.60678738 121.83513427 -46.54678017 125.92112553 -54.5 130 C-64.44898337 135.10297412 -74.3309782 140.29723114 -84.12353516 145.6965332 C-91.62064983 149.82198544 -99.20384559 153.76954564 -106.80297852 157.703125 C-112.41012738 160.61647867 -117.95189279 163.61419665 -123.4375 166.75 C-128.94469333 169.89340993 -134.51933755 172.8175692 -140.20629883 175.62109375 C-146.6040916 178.7817932 -152.95522675 182.03120055 -159.29525757 185.30581665 C-160.50371609 185.92940519 -161.71287172 186.55164488 -162.92276001 187.17245483 C-164.64043857 188.05412648 -166.35541431 188.94105752 -168.0703125 189.828125 C-169.06820801 190.3427832 -170.06610352 190.85744141 -171.09423828 191.38769531 C-174.19642033 193.10898671 -177.07482739 194.99556418 -180 197 C-179.49659767 201.67566913 -177.61922114 204.14028912 -174.6875 207.75 C-170.6800607 212.78349512 -166.87228771 217.9131841 -163.1875 223.1875 C-159.0215848 229.13564286 -154.82030756 235.05471661 -150.5625 240.9375 C-150.0247998 241.68056396 -149.48709961 242.42362793 -148.93310547 243.18920898 C-147.84043645 244.69843566 -146.74749931 246.20746825 -145.65429688 247.71630859 C-133.32638339 264.73450558 -121.103826 281.82171774 -109 299 C-105.01629003 298.39759632 -102.03965956 297.14499905 -98.51171875 295.21875 C-96.88919189 294.34029419 -96.88919189 294.34029419 -95.23388672 293.4440918 C-94.65830017 293.1285434 -94.08271362 292.812995 -93.48968506 292.48788452 C-91.64488364 291.47663945 -89.79599097 290.47327237 -87.94580078 289.47192383 C-85.98026208 288.40809605 -84.01497278 287.34383636 -82.05090332 286.27729797 C-75.50677459 282.72441029 -68.93416851 279.22614645 -62.35549927 275.73773193 C-60.35632764 274.6775983 -58.35767376 273.61649414 -56.35913086 272.55517578 C-49.37537099 268.84725427 -42.38814467 265.14591596 -35.3984375 261.44921875 C-34.68464432 261.0716745 -33.97085114 260.69413025 -33.23542786 260.30514526 C-27.27982999 257.15510544 -27.27982999 257.15510544 -24.58761597 255.73181152 C-16.15603691 251.27373249 -7.73839365 246.79188116 0.65917969 242.27001953 C12.57603174 235.85338456 24.56150056 229.59317672 36.60598755 223.42074585 C47.45272055 217.85996417 58.22217746 212.17306448 68.95166016 206.3894043 C76.55755354 202.29371318 84.20051803 198.27804502 91.875 194.3125 C100.5338551 189.83649622 109.11557031 185.24109276 117.65332031 180.53857422 C125.98409086 175.96680989 134.41649768 171.59802549 142.87890625 167.27539062 C144.38130859 166.50291992 144.38130859 166.50291992 145.9140625 165.71484375 C146.8004541 165.26230225 147.6868457 164.80976074 148.60009766 164.34350586 C150.90151845 163.05513163 152.93369269 161.63415218 155 160 C154.40419607 154.76103439 151.90098133 150.48829636 149.51171875 145.87890625 C149.05740479 144.99125076 148.60309082 144.10359528 148.13500977 143.18904114 C146.65894803 140.31016515 145.17358722 137.43621188 143.6875 134.5625 C142.66685593 132.5783997 141.64642993 130.59418721 140.6262207 128.60986328 C135.33237409 118.33376939 129.98463194 108.09810578 124.36401367 97.99633789 C118.92396201 88.17399511 113.86823761 78.14795203 108.78393555 68.13818359 C108.08513674 66.76919907 107.38632546 65.40022092 106.6875 64.03125 C106.37444412 63.41033478 106.06138824 62.78941956 105.73884583 62.14968872 C103.72783078 58.21757238 101.67974712 54.5061362 99 51 C95.7955503 51 94.89751082 51.41825237 92.1953125 52.95703125 Z M-522 52 C-527.69086623 61.96005453 -533.15989642 72.00106872 -538.37057495 82.22042847 C-540.21943026 85.84574175 -542.07949896 89.46530563 -543.9375 93.0859375 C-544.47829445 94.1408564 -544.47829445 94.1408564 -545.03001404 95.21708679 C-547.63904148 100.30477545 -550.26995433 105.38020381 -552.9375 110.4375 C-553.29569824 111.11876953 -553.65389648 111.80003906 -554.02294922 112.50195312 C-556.43826228 117.08177004 -558.88352528 121.64500209 -561.33891296 126.20341492 C-563.00084248 129.29240317 -564.65587073 132.38506517 -566.31033325 135.47805786 C-567.1387427 137.02247991 -567.97030087 138.56521754 -568.80514526 140.10617065 C-569.98342493 142.28150396 -571.15087909 144.46234508 -572.31640625 146.64453125 C-572.67320465 147.29690765 -573.03000305 147.94928406 -573.39761353 148.62142944 C-575.4065154 152.41198352 -576.54664077 155.73103823 -577 160 C-570.95839262 163.89803942 -564.77147005 167.28575392 -558.375 170.5625 C-550.61257944 174.57287696 -542.90312269 178.65989984 -535.25 182.875 C-523.63869953 189.25778932 -511.86847534 195.32320165 -500.09423828 201.3984375 C-495.80194055 203.62010967 -491.52399936 205.86837242 -487.25 208.125 C-480.34380603 211.77024784 -473.42531651 215.39120912 -466.5 219 C-458.72470624 223.05214896 -450.95908037 227.12191341 -443.203125 231.2109375 C-436.97753298 234.4908635 -430.7400801 237.74773521 -424.5 241 C-399.32938645 254.12377642 -374.21260503 267.3590632 -349.25 280.875 C-347.81720703 281.6494043 -347.81720703 281.6494043 -346.35546875 282.43945312 C-341.63092547 285.00075594 -336.92925565 287.59595955 -332.25390625 290.24609375 C-331.33641602 290.76252441 -330.41892578 291.27895508 -329.47363281 291.81103516 C-327.7528804 292.7819184 -326.03699472 293.7615008 -324.32714844 294.75146484 C-321.3592491 296.4225567 -318.6120246 297.82526384 -315.33203125 298.76171875 C-311.24100546 297.42545404 -309.30650693 293.90037905 -306.875 290.5 C-306.30587891 289.72970459 -305.73675781 288.95940918 -305.15039062 288.16577148 C-300.55903916 281.90640814 -296.16220322 275.51317956 -291.8046875 269.08984375 C-287.23739272 262.38476976 -282.43082421 255.8486524 -277.66162109 249.28662109 C-274.91523142 245.50720797 -272.17510948 241.72327668 -269.4375 237.9375 C-268.63493774 236.82773804 -268.63493774 236.82773804 -267.81616211 235.69555664 C-263.56418673 229.80508734 -259.35748422 223.883445 -255.19628906 217.9284668 C-253.00060394 214.79320339 -250.78791197 211.68953351 -248.4375 208.66796875 C-247.695 207.70503906 -246.9525 206.74210938 -246.1875 205.75 C-245.54167969 204.94046875 -244.89585937 204.1309375 -244.23046875 203.296875 C-242.77461618 201.0684005 -242.77461618 201.0684005 -243.17114258 198.52246094 C-244.21020975 195.3602689 -245.11770491 194.85879345 -248.03125 193.34375 C-248.89169922 192.88548828 -249.75214844 192.42722656 -250.63867188 191.95507812 C-251.58291016 191.47490234 -252.52714844 190.99472656 -253.5 190.5 C-254.97049805 189.7255957 -254.97049805 189.7255957 -256.47070312 188.93554688 C-259.63827855 187.27271985 -262.81808827 185.63520252 -266 184 C-268.08392788 182.9178108 -270.16726598 181.83448509 -272.25 180.75 C-275.3951583 179.11338474 -278.54122083 177.47869574 -281.69091797 175.85083008 C-288.38691875 172.3854824 -295.02284515 168.82803248 -301.625 165.1875 C-311.16889018 159.92919714 -320.83546336 154.93089203 -330.53015137 149.95880127 C-338.70505926 145.76384114 -346.83278081 141.50850479 -354.875 137.0625 C-364.70033265 131.63231615 -374.67175738 126.50681387 -384.66366577 121.39254761 C-394.29368582 116.46109112 -403.83942222 111.41134405 -413.30859375 106.17578125 C-420.36237347 102.2962024 -427.53739359 98.69988753 -434.75708008 95.14086914 C-441.22050755 91.93697791 -447.56248812 88.55337333 -453.875 85.0625 C-462.47236435 80.30938571 -471.19032786 75.86700037 -479.99902344 71.52001953 C-488.94703656 67.08104597 -497.7057991 62.33001277 -506.4453125 57.49609375 C-507.2384082 57.06151855 -508.03150391 56.62694336 -508.84863281 56.17919922 C-510.67133521 55.1801465 -512.4886241 54.17122701 -514.3046875 53.16015625 C-517.15575346 51.93295829 -518.94446214 51.90497437 -522 52 Z M-226 209 C-232.74611676 218.27871209 -239.44072645 227.58802736 -246 237 C-253.08223856 247.15725342 -260.32769399 257.19065357 -267.60449219 267.20898438 C-273.94831214 275.94764456 -280.24065719 284.7188059 -286.4375 293.5625 C-287.00460693 294.37122559 -287.57171387 295.17995117 -288.15600586 296.01318359 C-291.39628836 300.65173248 -294.5364242 305.33045645 -297.55200195 310.11889648 C-299.89913857 313.16807666 -302.53396374 314.40029096 -306 316 C-306.99 316.495 -306.99 316.495 -308 317 C-318.01006409 318.67988965 -325.16652779 315.00894336 -333.6171875 310.30957031 C-337.16452437 308.35998886 -340.76349962 306.51309687 -344.35888672 304.65405273 C-348.32142233 302.60269214 -352.2723559 300.52948408 -356.22363281 298.45654297 C-358.71849922 297.14768147 -361.21455763 295.8411278 -363.7109375 294.53515625 C-372.40453413 289.97970026 -381.06204816 285.3598515 -389.70736694 280.71343994 C-390.29893585 280.39550476 -390.89050476 280.07756958 -391.5 279.75 C-392.09261627 279.43142029 -392.68523254 279.11284058 -393.29580688 278.78460693 C-403.2425821 273.44075948 -413.25191399 268.22635931 -423.28857422 263.05297852 C-430.99788063 259.06805881 -438.62139883 254.94927685 -446.21875 250.75585938 C-456.03213045 245.37409943 -466.002983 240.29733811 -475.97900391 235.2253418 C-477.31695387 234.54259002 -478.65468375 233.85940676 -479.9921875 233.17578125 C-480.64559113 232.84303696 -481.29899475 232.51029266 -481.97219849 232.16746521 C-485.51230598 230.34643941 -488.98815139 228.4496184 -492.42675781 226.44287109 C-493.15186554 226.02176559 -493.87697327 225.6006601 -494.62405396 225.16679382 C-496.01597619 224.35214336 -497.40168356 223.52675171 -498.77999878 222.68928528 C-503.05658014 220.16389264 -503.05658014 220.16389264 -508 221 C-508 251.36 -508 281.72 -508 313 C-498.64305926 317.67847037 -489.3478412 322.31937927 -479.8269043 326.62939453 C-479.13269379 326.94410706 -478.43848328 327.25881958 -477.72323608 327.58306885 C-476.65367172 328.06788727 -476.65367172 328.06788727 -475.5625 328.5625 C-474.03869339 329.25607316 -472.51501457 329.94992715 -470.99145508 330.64404297 C-464.17754525 333.74670174 -457.35839669 336.83780856 -450.53945923 339.92939758 C-447.08856619 341.49406963 -443.63799092 343.05944142 -440.1875 344.625 C-439.51144714 344.93158539 -438.83539429 345.23817078 -438.13885498 345.55404663 C-427.48476501 350.38757271 -416.87217344 355.30539121 -406.27841187 360.26959229 C-398.87743925 363.73722191 -391.46453052 367.17098022 -384 370.5 C-375.70630802 374.19890446 -367.47464079 378.02579273 -359.25 381.875 C-348.39380588 386.95502648 -337.51870435 391.99048671 -326.6171875 396.97265625 C-321.5565071 399.28563763 -316.50011077 401.60779692 -311.4453125 403.93359375 C-308.31772294 405.37242759 -305.19011912 406.81123042 -302.0625 408.25 C-301.27517487 408.61221649 -300.48784973 408.97443298 -299.67666626 409.34762573 C-291.15947145 413.26504601 -282.6379266 417.17216738 -274.09765625 421.0390625 C-273.38585205 421.36148926 -272.67404785 421.68391602 -271.94067383 422.01611328 C-269.14992868 423.27995549 -266.35910781 424.54361632 -263.5668335 425.80407715 C-256.65887375 428.92329225 -249.77986398 432.07869525 -242.97265625 435.4140625 C-241.90257324 435.93758301 -240.83249023 436.46110352 -239.72998047 437.00048828 C-237.76384915 437.9695124 -235.80280765 438.94896425 -233.84814453 439.94091797 C-232.99462402 440.36260254 -232.14110352 440.78428711 -231.26171875 441.21875 C-230.16283325 441.7746582 -230.16283325 441.7746582 -229.04174805 442.34179688 C-226.57451568 443.13716438 -225.3618961 443.05044502 -223 442 C-221.66203604 437.98610813 -221.8659296 434.13029073 -221.87974548 429.94551086 C-221.87889106 429.0078141 -221.87803663 428.07011733 -221.87715632 427.10400552 C-221.87550364 423.94863099 -221.88101946 420.79330912 -221.88647461 417.63793945 C-221.88675655 415.38136801 -221.88659861 413.12479648 -221.8860321 410.8682251 C-221.88574441 404.73016076 -221.89163666 398.59211584 -221.89860606 392.45405602 C-221.90484422 386.04384983 -221.90544377 379.63364321 -221.90663147 373.22343445 C-221.90938953 362.46039428 -221.91564185 351.69736262 -221.92456055 340.93432617 C-221.9337378 329.84773799 -221.94081711 318.76115176 -221.94506836 307.67456055 C-221.94533108 306.99132673 -221.94559381 306.30809291 -221.94586449 305.60415504 C-221.94716952 302.17661464 -221.94843323 298.74907422 -221.94967639 295.3215338 C-221.96004522 266.88101761 -221.97773451 238.44050919 -222 210 C-223.98 209.505 -223.98 209.505 -226 209 Z M-199 209 C-200.89612645 210.89612645 -200.12288039 213.67814727 -200.12908131 216.20124394 C-200.12616847 217.1010311 -200.12325563 218.00081826 -200.12025452 218.9278717 C-200.12110894 219.87611028 -200.12196337 220.82434885 -200.12284368 221.80132192 C-200.12450138 225.00436681 -200.1189724 228.20736026 -200.11352539 231.41040039 C-200.11324356 233.6962331 -200.11340118 235.9820659 -200.1139679 238.26789856 C-200.11425601 244.49492134 -200.108357 250.72192505 -200.10139394 256.94894338 C-200.09516275 263.44858152 -200.09455679 269.94822005 -200.09336853 276.44786072 C-200.09060881 287.36408836 -200.08435325 298.28030892 -200.07543945 309.1965332 C-200.06626609 320.44230107 -200.05918489 331.68806704 -200.05493164 342.93383789 C-200.05466892 343.62655814 -200.05440619 344.31927839 -200.05413551 345.03299017 C-200.05283051 348.50802405 -200.05156679 351.98305795 -200.05032361 355.45809186 C-200.03995008 384.30539923 -200.02225685 413.15269945 -200 442 C-195.03257091 443.24811106 -192.25413756 442.14137387 -187.796875 439.90625 C-186.74410873 439.39958046 -186.74410873 439.39958046 -185.67007446 438.88267517 C-184.15271373 438.1507062 -182.63832797 437.41254485 -181.12664795 436.66891479 C-177.8930559 435.07852629 -174.64536653 433.51801328 -171.3979187 431.9561615 C-169.72300903 431.15052674 -168.04880022 430.34343338 -166.37527466 429.53492737 C-158.4334778 425.70428569 -150.41552332 422.05502894 -142.375 418.4375 C-131.19941327 413.39604331 -120.08251193 408.24277526 -109 403 C-86.47200091 392.34849203 -63.77096638 382.09277801 -40.98803711 371.99951172 C-31.34751224 367.72376109 -21.79130574 363.29209657 -12.27734375 358.7421875 C-0.10023295 352.9205722 12.13194085 347.23542204 24.41308594 341.63671875 C28.4775039 339.78211366 32.53965587 337.92259685 36.6015625 336.0625 C38.88479765 335.01728904 41.16807878 333.97217863 43.4513855 332.92712402 C44.97855941 332.22810452 46.50567974 331.52896796 48.03274536 330.82971191 C55.21437842 327.54186372 62.39659879 324.25729122 69.61328125 321.046875 C70.55397461 320.62809082 71.49466797 320.20930664 72.46386719 319.77783203 C74.13841104 319.03495378 75.81472022 318.29603587 77.49316406 317.56201172 C81.56545384 315.77172843 81.56545384 315.77172843 85 313 C85.18824486 310.10777447 85.25170246 307.3120186 85.22705078 304.41943359 C85.22748886 303.08763313 85.22748886 303.08763313 85.22793579 301.72892761 C85.22653907 298.78533253 85.21096184 295.84198853 85.1953125 292.8984375 C85.19158358 290.86105487 85.18873604 288.82367046 85.18673706 286.7862854 C85.17909104 281.41698275 85.15943425 276.04778784 85.1373291 270.67852783 C85.11689151 265.20236672 85.10773982 259.72618824 85.09765625 254.25 C85.07618926 243.49995259 85.04204166 232.74998525 85 222 C81.77941813 220.96197835 81.15266694 220.93818588 77.81811523 222.28833008 C76.55847333 222.93630816 75.30566488 223.5976779 74.05859375 224.26953125 C73.38350769 224.62102737 72.70842163 224.9725235 72.01287842 225.33467102 C69.81490855 226.48257981 67.62633228 227.64727631 65.4375 228.8125 C63.91958363 229.60962265 62.40110759 230.40568044 60.88208008 231.20068359 C57.21114541 233.12492507 53.54707707 235.0618172 49.88500977 237.00286865 C47.45427106 238.28867937 45.01703814 239.56180428 42.578125 240.83203125 C34.7157708 244.93254222 26.90293234 249.12392751 19.09155273 253.32055664 C18.5012326 253.63767609 17.91091248 253.95479553 17.30270386 254.28152466 C16.10221237 254.92647052 14.90179309 255.5715508 13.70144653 256.21676636 C4.88343661 260.95424678 -3.97725541 265.60095487 -12.875 270.1875 C-21.87107481 274.82505149 -30.78873914 279.57894951 -39.65380859 284.46166992 C-48.00280187 289.04232561 -56.45869479 293.40661036 -64.92651367 297.76269531 C-73.37359074 302.12067572 -81.7320196 306.6220362 -90.0234375 311.26953125 C-96.02766555 314.60108901 -101.3700192 317.27228767 -108.375 317.375 C-109.24898437 317.40335938 -110.12296875 317.43171875 -111.0234375 317.4609375 C-116.60687421 316.59631082 -121.23381549 314.3400155 -124.80078125 309.890625 C-125.65571732 308.68948479 -126.49233926 307.47514891 -127.3125 306.25 C-127.77414551 305.59169189 -128.23579102 304.93338379 -128.71142578 304.25512695 C-130.15898476 302.18189483 -131.58106156 300.09289746 -133 298 C-133.89615692 296.69594162 -134.79327565 295.39254361 -135.69140625 294.08984375 C-137.04366503 292.12547878 -138.39386605 290.15985142 -139.73803711 288.18994141 C-145.32810663 280.00901587 -151.17396658 272.0135928 -157 264 C-164.40951501 253.80157306 -171.74219829 243.55706491 -178.95385742 233.2175293 C-182.92517874 227.52539549 -186.93181774 221.86049018 -190.98120117 216.22363281 C-192.69386735 213.8382791 -194.37076497 211.44385255 -196 209 C-196.99 209 -197.98 209 -199 209 Z " fill="#242021" transform="translate(723,350)"/>
</svg>
